<?xml version="1.0" encoding="utf-8"?>
<!-- Generator: Adobe Illustrator 22.0.1, SVG Export Plug-In . SVG Version: 6.00 Build 0)  -->
<svg version="1.1" id="Layer_1" xmlns="http://www.w3.org/2000/svg" xmlns:xlink="http://www.w3.org/1999/xlink" x="0px" y="0px"
	 viewBox="0 0 36 36" style="enable-background:new 0 0 36 36;" xml:space="preserve">
<path d="M4.4,14.8l10.4,11.1l-5-11.1H4.4z M18,27.7l5.8-12.9H12.2L18,27.7z M9.9,12.6l3.4-6.4H8.9l-4.8,6.4H9.9z M21.2,25.9
	l10.4-11.1h-5.4L21.2,25.9z M12.3,12.6h11.4l-3.4-6.4h-4.6L12.3,12.6z M26.1,12.6h5.8l-4.8-6.4h-4.4L26.1,12.6z M28.5,4.5l6.4,8.6
	c0.2,0.2,0.2,0.4,0.2,0.7c0,0.3-0.1,0.5-0.3,0.7L18.8,31.6c-0.2,0.2-0.5,0.3-0.8,0.3c-0.3,0-0.6-0.1-0.8-0.3L1.1,14.5
	C1,14.3,0.9,14,0.9,13.8c0-0.3,0.1-0.5,0.2-0.7l6.4-8.6C7.7,4.2,8,4.1,8.4,4.1h19.3C28,4.1,28.3,4.2,28.5,4.5z"/>
</svg>
