<?xml version="1.0" encoding="utf-8"?>
<!-- Generator: Adobe Illustrator 22.0.1, SVG Export Plug-In . SVG Version: 6.00 Build 0)  -->
<svg version="1.1" id="Layer_1" xmlns="http://www.w3.org/2000/svg" xmlns:xlink="http://www.w3.org/1999/xlink" x="0px" y="0px"
	 viewBox="0 0 36 36" style="enable-background:new 0 0 36 36;" xml:space="preserve">
<path d="M30.7,17.9c0,2.3-0.6,4.5-1.7,6.5s-2.7,3.5-4.7,4.7s-4.1,1.7-6.5,1.7c-1.2,0-2.5-0.2-3.6-0.5c0.7-1,1.1-2,1.3-2.7
	c0.1-0.4,0.4-1.6,0.9-3.5c0.2,0.4,0.6,0.8,1.2,1.1c0.6,0.3,1.2,0.5,1.9,0.5c1.4,0,2.6-0.4,3.6-1.1s1.9-1.8,2.5-3.2
	c0.6-1.3,0.9-2.8,0.9-4.5c0-1.3-0.3-2.5-1-3.6c-0.7-1.1-1.6-2-2.9-2.7c-1.3-0.7-2.7-1.1-4.3-1.1c-1.2,0-2.3,0.2-3.3,0.5
	c-1,0.3-1.9,0.8-2.6,1.3c-0.7,0.5-1.3,1.2-1.8,1.8s-0.9,1.4-1.1,2.2s-0.4,1.5-0.4,2.2c0,1.2,0.2,2.2,0.7,3.1c0.4,0.9,1.1,1.5,2,1.9
	c0.3,0.1,0.5,0,0.6-0.3c0-0.1,0.1-0.3,0.1-0.5s0.1-0.4,0.1-0.5c0.1-0.3,0-0.5-0.2-0.7c-0.6-0.7-0.9-1.5-0.9-2.5
	c0-1.7,0.6-3.1,1.7-4.3s2.7-1.8,4.6-1.8c1.7,0,3,0.5,3.9,1.4c0.9,0.9,1.4,2.1,1.4,3.6c0,1.9-0.4,3.5-1.1,4.8c-0.8,1.3-1.7,2-2.9,2
	c-0.7,0-1.2-0.2-1.6-0.7c-0.4-0.5-0.5-1.1-0.4-1.7c0.1-0.4,0.2-0.9,0.4-1.6c0.2-0.7,0.4-1.2,0.5-1.7c0.1-0.5,0.2-0.9,0.2-1.3
	c0-0.6-0.2-1-0.5-1.4c-0.3-0.4-0.7-0.6-1.3-0.6c-0.7,0-1.3,0.3-1.8,1c-0.5,0.6-0.7,1.4-0.7,2.4c0,0.8,0.1,1.5,0.4,2l-1.7,7
	c-0.2,0.8-0.3,1.8-0.2,3c-2.3-1-4.2-2.6-5.6-4.7S5,20.5,5,17.9c0-2.3,0.6-4.5,1.7-6.5c1.1-2,2.7-3.5,4.7-4.7c2-1.1,4.1-1.7,6.5-1.7
	s4.5,0.6,6.5,1.7c2,1.1,3.5,2.7,4.7,4.7C30.1,13.4,30.7,15.5,30.7,17.9z"/>
</svg>
