<?xml version="1.0" encoding="utf-8"?>
<!-- Generator: Adobe Illustrator 22.0.1, SVG Export Plug-In . SVG Version: 6.00 Build 0)  -->
<svg version="1.1" id="Layer_1" xmlns="http://www.w3.org/2000/svg" xmlns:xlink="http://www.w3.org/1999/xlink" x="0px" y="0px"
	 viewBox="0 0 36 36" style="enable-background:new 0 0 36 36;" xml:space="preserve">
<path d="M26.8,13.7c0.1-2.4-0.8-3.6-2.7-3.7c-2.6-0.1-4.3,1.4-5.2,4.4c0.5-0.2,0.9-0.3,1.4-0.3c0.9,0,1.4,0.5,1.2,1.6
	c0,0.6-0.5,1.6-1.2,2.8c-0.8,1.2-1.4,1.8-1.8,1.8c-0.5,0-0.9-0.9-1.4-2.8c-0.1-0.6-0.4-2-0.8-4.3c-0.3-2.1-1.2-3.1-2.7-3
	c-0.7,0.1-1.6,0.6-2.7,1.7c-0.3,0.3-0.8,0.7-1.4,1.2C9,13.6,8.5,14,8.2,14.3l0.9,1.1c0.8-0.6,1.3-0.9,1.5-0.9c0.6,0,1.2,1,1.8,3
	c0.2,0.6,0.4,1.5,0.8,2.8c0.3,1.2,0.6,2.1,0.8,2.8c0.8,2,1.7,3,2.7,3c1.8,0,3.9-1.6,6.4-4.9C25.4,18,26.7,15.5,26.8,13.7z M30.9,10
	V26c0,1.3-0.5,2.5-1.4,3.4c-0.9,0.9-2.1,1.4-3.4,1.4H10c-1.3,0-2.5-0.5-3.4-1.4c-0.9-0.9-1.4-2.1-1.4-3.4V10c0-1.3,0.5-2.5,1.4-3.4
	S8.6,5.1,10,5.1H26c1.3,0,2.5,0.5,3.4,1.4S30.9,8.6,30.9,10z"/>
</svg>
